<svg width="1256" height="194" viewBox="0 0 1256 194" fill="none" xmlns="http://www.w3.org/2000/svg">
<mask id="mask0_512_144" style="mask-type:luminance" maskUnits="userSpaceOnUse" x="0" y="0" width="186" height="194">
<path d="M59.2044 193.369C46.8588 193.369 36.2866 191.254 27.4877 187.026C18.6889 182.933 12.0046 176.999 7.29823 169.155C2.45548 161.311 0 151.83 0 140.644C0 133.892 1.02312 127.207 3.06936 120.659C5.11559 114.248 8.38957 108.314 12.9595 102.994C17.3248 97.8098 23.1225 93.6491 30.3525 90.5115C37.5825 87.3739 46.3131 85.8052 56.6807 85.8052H81.7812V0.0678711H103.812V193.437H59.2044V193.369ZM56.8171 107.7C50.0645 107.7 44.5397 108.791 40.1744 110.974C35.8091 113.157 32.3305 115.885 29.8068 119.227C27.2831 122.706 25.5097 126.321 24.4184 130.072C23.3271 133.823 22.7814 137.234 22.7814 140.167C22.7814 143.645 23.3271 147.124 24.4184 150.739C25.5097 154.49 27.4195 157.901 30.0796 160.834C32.6033 163.971 35.9455 166.495 40.1744 168.337C44.2669 170.383 49.3143 171.406 55.453 171.406H81.7812V107.632H56.8853L56.8171 107.7Z" fill="white"/>
<path d="M126.663 0.0681704C139.009 0.0681704 149.581 2.18267 158.38 6.41155C167.178 10.504 173.863 16.4381 178.569 24.282C183.412 32.1259 185.867 41.6068 185.867 52.7929C185.867 59.5455 184.844 66.2298 182.798 72.7777C180.752 79.1893 177.478 85.1233 172.908 90.4435C168.542 95.6273 162.745 99.788 155.515 102.926C148.285 106.063 139.554 107.632 129.187 107.632H104.086V193.369H81.3047V0H126.663V0.0681704ZM129.05 85.7373C135.803 85.7373 141.328 84.6459 145.693 82.4632C150.058 80.2806 153.537 77.5523 156.06 74.2101C158.584 70.7315 160.358 67.1166 161.449 63.3651C162.54 59.6137 163.086 56.2032 163.086 53.2703C163.086 49.7917 162.54 46.3131 161.449 42.6981C160.358 38.9466 158.448 35.5363 155.788 32.6033C153.264 29.4658 149.922 26.9421 145.693 25.1005C141.6 23.0543 136.553 22.0311 130.414 22.0311H104.086V85.8055H128.982L129.05 85.7373Z" fill="white"/>
</mask>
<g mask="url(#mask0_512_144)">
<path d="M185.866 0.0678711H0V193.437H185.866V0.0678711Z" fill="white"/>
</g>
<path d="M260.689 49.1091L259.87 61.1138C268.533 50.3369 275.899 46.3809 288.586 46.3809C315.392 46.3809 333.535 67.8663 333.535 99.7193C333.535 131.572 315.596 153.74 288.79 153.74C277.604 153.74 269.829 150.602 261.371 142.759V183.274H231.428V49.1774H260.757L260.689 49.1091ZM260.28 99.924C260.28 118.067 268.737 129.458 282.243 129.458C295.748 129.458 303.933 118.067 303.933 100.333C303.933 82.5992 295.679 70.5947 281.97 70.5947C268.26 70.5947 260.28 81.9854 260.28 99.924Z" fill="white"/>
<path d="M346.291 81.1669C348.201 57.7716 362.729 46.3809 391.445 46.3809C406.86 46.3809 418.66 49.9959 426.64 56.9531C434.006 63.501 436.735 71.686 436.735 86.6917V133.482C436.735 144.464 437.144 145.896 440.554 151.012H409.997C408.701 147.397 408.701 146.783 407.678 143.031C397.788 151.284 390.626 153.808 378.553 153.808C355.977 153.808 341.039 141.122 341.039 121.955C341.039 102.789 353.044 92.8304 381.555 88.1923L397.788 85.4639C404.541 84.4408 406.86 82.7356 406.86 78.5067C406.86 72.8454 400.926 69.2305 391.24 69.2305C380.259 69.2305 374.393 73.0501 373.097 81.2351H346.291V81.1669ZM407.678 102.448C404.541 103.744 401.744 104.562 396.697 105.585L385.92 107.904C375.143 110.428 370.505 114.043 370.505 120.113C370.505 126.866 376.166 130.89 385.715 130.89C395.264 130.89 402.767 126.661 407.678 117.999V102.379V102.448Z" fill="white"/>
<path d="M550.641 49.7231V141.258C550.641 157.901 548.322 165.267 541.161 172.292C531.884 181.364 517.97 186.002 500.44 186.002C471.998 186.002 454.878 174.407 452.763 153.535H483.798C485.912 159.879 491.778 163.016 501.736 163.016C507.67 163.016 512.718 161.516 515.855 158.992C520.289 155.377 521.517 151.626 521.517 141.258V134.505C512.445 142.758 505.488 145.487 494.097 145.487C467.291 145.487 448.125 125.024 448.125 96.3772C448.125 67.7299 467.496 46.3809 493.279 46.3809C506.579 46.3809 516.06 51.4282 523.017 62.205L522.403 49.7913H550.641V49.7231ZM476.636 95.8997C476.636 110.905 485.708 121.205 499.213 121.205C512.718 121.205 521.789 111.315 521.789 95.4905C521.789 80.4847 512.718 70.5947 499.213 70.5947C485.708 70.5947 476.636 80.6894 476.636 95.8997Z" fill="white"/>
<path d="M599.409 150.944H569.875V121.41H599.409V150.944Z" fill="white"/>
<path d="M668.777 71.4813H649.406V151.012H619.463V71.4813H605.344V50.4051H619.463V43.0387C619.463 21.0758 630.24 10.3672 652.339 10.3672H668.777V34.1717H659.91C652.953 34.1717 649.338 37.3092 649.338 43.2433V50.4051H668.709V71.4813H668.777Z" fill="white"/>
<path d="M705.678 34.9906H675.734V10.2993H705.678V34.9906ZM705.678 150.944H675.734V49.1096H705.678V150.944Z" fill="white"/>
<path d="M752.469 49.1096V58.9998C763.45 48.905 769.793 46.1084 780.297 46.1084C802.465 46.1084 815.97 60.8413 815.97 84.9187V150.944H786.027V95.4909C786.027 85.1233 785.413 81.1672 782.889 77.3476C780.366 73.528 775.932 71.4135 770.68 71.4135C765.428 71.4135 760.995 73.3234 757.789 76.8702C754.447 80.6898 753.355 84.8505 753.355 93.7175V150.876H723.412V49.0414H752.537L752.469 49.1096Z" fill="white"/>
<path d="M833.84 81.1669C835.75 57.7716 850.278 46.3809 878.993 46.3809C894.408 46.3809 906.208 49.9959 914.189 56.9531C921.555 63.501 924.283 71.686 924.283 86.6917V133.482C924.283 144.464 924.693 145.896 928.103 151.012H897.546C896.25 147.397 896.25 146.783 895.227 143.031C885.337 151.284 878.175 153.808 866.102 153.808C843.525 153.808 828.588 141.122 828.588 121.955C828.588 102.789 840.592 92.8304 869.103 88.1923L885.337 85.4639C892.089 84.4408 894.408 82.7356 894.408 78.5067C894.408 72.8454 888.474 69.2305 878.789 69.2305C867.807 69.2305 861.941 73.0501 860.646 81.2351H833.84V81.1669ZM895.227 102.448C892.089 103.744 889.293 104.562 884.245 105.585L873.469 107.904C862.692 110.428 858.054 114.043 858.054 120.113C858.054 126.866 863.715 130.89 873.264 130.89C882.813 130.89 890.316 126.661 895.227 117.999V102.379V102.448Z" fill="white"/>
<path d="M971.348 49.1096V58.9998C982.329 48.905 988.672 46.1084 999.176 46.1084C1021.34 46.1084 1034.85 60.8413 1034.85 84.9187V150.944H1004.91V95.4909C1004.91 85.1233 1004.29 81.1672 1001.77 77.3476C999.245 73.528 994.811 71.4135 989.559 71.4135C984.307 71.4135 979.873 73.3234 976.668 76.8702C973.326 80.6898 972.234 84.8505 972.234 93.7175V150.876H942.291V49.0414H971.416L971.348 49.1096Z" fill="white"/>
<path d="M1117.31 85.805C1115.6 76.1195 1108.85 70.5947 1098.76 70.5947C1085.05 70.5947 1077.68 80.9622 1077.68 99.5147C1077.68 119.159 1085.05 129.458 1098.96 129.458C1109.74 129.458 1115.6 124.001 1117.92 111.929L1147.05 113.429C1142.82 139.144 1125.09 153.74 1098.14 153.74C1067.11 153.74 1047.53 133.073 1047.53 100.401C1047.53 67.7299 1066.9 46.3809 1099.23 46.3809C1125.84 46.3809 1143.98 61.5912 1145.82 85.805H1117.38H1117.31Z" fill="white"/>
<path d="M1182.66 108.791C1184.57 122.705 1192.75 130.276 1205.64 130.276C1213.69 130.276 1219.35 127.548 1223.38 121.205H1253.73C1248.07 141.053 1229.04 153.672 1204.82 153.672C1173.38 153.672 1152.51 132.186 1152.51 100.129C1152.51 68.071 1173.79 46.3809 1204.62 46.3809C1226.1 46.3809 1242.34 57.1577 1249.98 76.3241C1253.59 85.1911 1255.02 94.672 1255.02 108.791H1182.66ZM1224.19 87.7148C1222.9 75.7102 1215.94 69.1622 1204.35 69.1622C1192.75 69.1622 1185.18 75.7102 1182.86 87.7148H1224.19Z" fill="white"/>
</svg>
