<svg viewBox="0 0 400 460" xmlns="http://www.w3.org/2000/svg" role="img" aria-label="Merge campaign screenshot placeholder">
  <defs>
    <linearGradient id="g" x1="0" y1="0" x2="1" y2="1">
      <stop offset="0%" stop-color="#3D8BFF" stop-opacity="0.28"/>
      <stop offset="100%" stop-color="#3D8BFF" stop-opacity="0.05"/>
    </linearGradient>
  </defs>
  <rect width="400" height="460" rx="16" fill="#0D0F14"/>
  <rect x="0.5" y="0.5" width="399" height="459" rx="15.5" fill="none" stroke="#1E232C"/>
  <rect width="400" height="460" rx="16" fill="url(#g)"/>

  <circle cx="36" cy="36" r="14" fill="#1E232C"/>
  <rect x="58" y="27" width="90" height="8" rx="4" fill="#2A303A"/>
  <rect x="58" y="41" width="60" height="6" rx="3" fill="#1E232C"/>

  <rect x="24" y="68" width="352" height="10" rx="5" fill="#171B22"/>
  <rect x="24" y="86" width="300" height="10" rx="5" fill="#171B22"/>

  <rect x="24" y="118" width="352" height="260" rx="12" fill="#12151C"/>
  <rect x="24.5" y="118.5" width="351" height="259" rx="11.5" fill="none" stroke="#1E232C"/>
  <text x="200" y="255" font-family="Arial, Helvetica, sans-serif" font-size="14" letter-spacing="2" fill="#4B5563" text-anchor="middle">SCREENSHOT</text>

  <rect x="24" y="398" width="40" height="8" rx="4" fill="#1E232C"/>
  <rect x="76" y="398" width="40" height="8" rx="4" fill="#1E232C"/>
  <rect x="128" y="398" width="40" height="8" rx="4" fill="#1E232C"/>
</svg>
